<?xml version="1.0" encoding="utf-8"?>
<!-- Generator: Adobe Illustrator 15.0.0, SVG Export Plug-In . SVG Version: 6.00 Build 0)  -->
<!DOCTYPE svg PUBLIC "-//W3C//DTD SVG 1.1//EN" "http://www.w3.org/Graphics/SVG/1.1/DTD/svg11.dtd" [
	<!ENTITY ns_flows "http://ns.adobe.com/Flows/1.0/">
	<!ENTITY ns_extend "http://ns.adobe.com/Extensibility/1.0/">
	<!ENTITY ns_ai "http://ns.adobe.com/AdobeIllustrator/10.0/">
	<!ENTITY ns_graphs "http://ns.adobe.com/Graphs/1.0/">
	<!ENTITY ns_vars "http://ns.adobe.com/Variables/1.0/">
	<!ENTITY ns_imrep "http://ns.adobe.com/ImageReplacement/1.0/">
	<!ENTITY ns_sfw "http://ns.adobe.com/SaveForWeb/1.0/">
	<!ENTITY ns_custom "http://ns.adobe.com/GenericCustomNamespace/1.0/">
	<!ENTITY ns_adobe_xpath "http://ns.adobe.com/XPath/1.0/">
]>
<svg version="1.1" xmlns:x="&ns_extend;" xmlns:i="&ns_ai;" xmlns:graph="&ns_graphs;"
	 xmlns="http://www.w3.org/2000/svg" xmlns:xlink="http://www.w3.org/1999/xlink" xmlns:a="http://ns.adobe.com/AdobeSVGViewerExtensions/3.0/"
	 x="0px" y="0px" width="134.265px" height="104px" viewBox="0 0 134.265 104" enable-background="new 0 0 134.265 104"
	 xml:space="preserve">
<metadata>
	<sfw  xmlns="&ns_sfw;">
		<slices></slices>
		<sliceSourceBounds  width="92.913" height="31.008" y="-63.357" x="-9.438" bottomLeftOrigin="true"></sliceSourceBounds>
	</sfw>
</metadata>
<g id="Layer_2">
	<linearGradient id="SVGID_1_" gradientUnits="userSpaceOnUse" x1="8.2573" y1="37.0962" x2="115.6538" y2="38.9453">
		<stop  offset="0" style="stop-color:#FFCC33"/>
		<stop  offset="1" style="stop-color:#000000"/>
		<a:midPointStop  offset="0" style="stop-color:#FFCC33"/>
		<a:midPointStop  offset="0.5" style="stop-color:#FFCC33"/>
		<a:midPointStop  offset="1" style="stop-color:#000000"/>
	</linearGradient>
	<rect x="21.908" y="36.856" fill="url(#SVGID_1_)" width="28.352" height="1.437"/>
	<linearGradient id="SVGID_2_" gradientUnits="userSpaceOnUse" x1="8.1416" y1="43.8896" x2="115.5381" y2="45.7388">
		<stop  offset="0" style="stop-color:#FFCC33"/>
		<stop  offset="1" style="stop-color:#000000"/>
		<a:midPointStop  offset="0" style="stop-color:#FFCC33"/>
		<a:midPointStop  offset="0.5" style="stop-color:#FFCC33"/>
		<a:midPointStop  offset="1" style="stop-color:#000000"/>
	</linearGradient>
	<rect x="21.908" y="43.7" fill="url(#SVGID_2_)" width="12.019" height="1.059"/>
	<linearGradient id="SVGID_3_" gradientUnits="userSpaceOnUse" x1="7.999" y1="52.1553" x2="115.3955" y2="54.0044">
		<stop  offset="0" style="stop-color:#FFCC33"/>
		<stop  offset="1" style="stop-color:#000000"/>
		<a:midPointStop  offset="0" style="stop-color:#FFCC33"/>
		<a:midPointStop  offset="0.5" style="stop-color:#FFCC33"/>
		<a:midPointStop  offset="1" style="stop-color:#000000"/>
	</linearGradient>
	<rect x="18.827" y="52.208" fill="url(#SVGID_3_)" width="41.535" height="0.981"/>
	<linearGradient id="SVGID_4_" gradientUnits="userSpaceOnUse" x1="8.2109" y1="39.7451" x2="115.6091" y2="41.5943">
		<stop  offset="0" style="stop-color:#FFCC33"/>
		<stop  offset="1" style="stop-color:#000000"/>
		<a:midPointStop  offset="0" style="stop-color:#FFCC33"/>
		<a:midPointStop  offset="0.5" style="stop-color:#FFCC33"/>
		<a:midPointStop  offset="1" style="stop-color:#000000"/>
	</linearGradient>
	<rect x="50.26" y="40.4" fill="url(#SVGID_4_)" width="61.48" height="1.195"/>
	<linearGradient id="SVGID_5_" gradientUnits="userSpaceOnUse" x1="7.9185" y1="56.8359" x2="115.3149" y2="58.6851">
		<stop  offset="0" style="stop-color:#FFCC33"/>
		<stop  offset="1" style="stop-color:#000000"/>
		<a:midPointStop  offset="0" style="stop-color:#FFCC33"/>
		<a:midPointStop  offset="0.5" style="stop-color:#FFCC33"/>
		<a:midPointStop  offset="1" style="stop-color:#000000"/>
	</linearGradient>
	<rect x="18.827" y="57.076" fill="url(#SVGID_5_)" width="47.149" height="0.707"/>
	<linearGradient id="SVGID_6_" gradientUnits="userSpaceOnUse" x1="8.0781" y1="47.5654" x2="115.4746" y2="49.4146">
		<stop  offset="0" style="stop-color:#FFCC33"/>
		<stop  offset="1" style="stop-color:#000000"/>
		<a:midPointStop  offset="0" style="stop-color:#FFCC33"/>
		<a:midPointStop  offset="0.5" style="stop-color:#FFCC33"/>
		<a:midPointStop  offset="1" style="stop-color:#000000"/>
	</linearGradient>
	<rect x="31.77" y="47.87" fill="url(#SVGID_6_)" width="55.873" height="1.167"/>
</g>
<g id="Layer_1">
	
		<linearGradient id="SVGID_7_" gradientUnits="userSpaceOnUse" x1="35.9443" y1="55.6455" x2="82.2792" y2="57.6881" gradientTransform="matrix(1 0 -0.2126 1 10.1173 0)">
		<stop  offset="0" style="stop-color:#443D3A"/>
		<stop  offset="0.5455" style="stop-color:#FFFFFF"/>
		<stop  offset="1" style="stop-color:#000000"/>
		<a:midPointStop  offset="0" style="stop-color:#443D3A"/>
		<a:midPointStop  offset="0.5" style="stop-color:#443D3A"/>
		<a:midPointStop  offset="0.5455" style="stop-color:#FFFFFF"/>
		<a:midPointStop  offset="0.5" style="stop-color:#FFFFFF"/>
		<a:midPointStop  offset="1" style="stop-color:#000000"/>
	</linearGradient>
	<path fill="url(#SVGID_7_)" d="M39.888,48.656h2.991l-1.042,4.901c0.73-0.906,1.703-1.358,2.919-1.358
		c0.728,0,1.267,0.17,1.615,0.509c0.348,0.339,0.524,0.769,0.527,1.289c0.002,0.52-0.102,1.275-0.312,2.266l-1.461,6.873h-2.991
		l1.463-6.883c0.149-0.701,0.183-1.166,0.101-1.396s-0.328-0.344-0.738-0.344c-0.403,0-0.749,0.109-1.035,0.328
		c-0.288,0.219-0.514,0.719-0.679,1.498l-1.445,6.797h-2.991L39.888,48.656z"/>
	
		<linearGradient id="SVGID_8_" gradientUnits="userSpaceOnUse" x1="35.8862" y1="56.9648" x2="82.2211" y2="59.0075" gradientTransform="matrix(1 0 -0.2126 1 10.1173 0)">
		<stop  offset="0" style="stop-color:#443D3A"/>
		<stop  offset="0.5455" style="stop-color:#FFFFFF"/>
		<stop  offset="1" style="stop-color:#000000"/>
		<a:midPointStop  offset="0" style="stop-color:#443D3A"/>
		<a:midPointStop  offset="0.5" style="stop-color:#443D3A"/>
		<a:midPointStop  offset="0.5455" style="stop-color:#FFFFFF"/>
		<a:midPointStop  offset="0.5" style="stop-color:#FFFFFF"/>
		<a:midPointStop  offset="1" style="stop-color:#000000"/>
	</linearGradient>
	<path fill="url(#SVGID_8_)" d="M56.448,58.275h-5.611l-0.125,0.592c-0.204,0.959-0.21,1.6-0.019,1.924s0.5,0.486,0.922,0.486
		c0.909,0,1.549-0.607,1.92-1.824l2.626,0.17c-1.002,2.49-2.683,3.734-5.042,3.734c-1.455,0-2.456-0.492-3.003-1.475
		c-0.546-0.984-0.645-2.299-0.294-3.945c0.395-1.861,1.098-3.279,2.108-4.26c1.009-0.979,2.188-1.469,3.538-1.469
		c1.215,0,2.139,0.434,2.77,1.299C56.87,54.375,56.939,55.965,56.448,58.275z M53.995,56.547c0.034-0.127,0.059-0.227,0.074-0.297
		c0.293-1.379-0.026-2.068-0.956-2.068c-0.916,0-1.545,0.789-1.887,2.365H53.995z"/>
	
		<linearGradient id="SVGID_9_" gradientUnits="userSpaceOnUse" x1="35.9048" y1="56.543" x2="82.2397" y2="58.5856" gradientTransform="matrix(1 0 -0.2126 1 10.1173 0)">
		<stop  offset="0" style="stop-color:#443D3A"/>
		<stop  offset="0.5455" style="stop-color:#FFFFFF"/>
		<stop  offset="1" style="stop-color:#000000"/>
		<a:midPointStop  offset="0" style="stop-color:#443D3A"/>
		<a:midPointStop  offset="0.5" style="stop-color:#443D3A"/>
		<a:midPointStop  offset="0.5455" style="stop-color:#FFFFFF"/>
		<a:midPointStop  offset="0.5" style="stop-color:#FFFFFF"/>
		<a:midPointStop  offset="1" style="stop-color:#000000"/>
	</linearGradient>
	<path fill="url(#SVGID_9_)" d="M61.583,55.826l-2.773-0.275c0.363-1.076,0.997-1.902,1.901-2.482
		c0.905-0.581,1.951-0.87,3.139-0.87c1.004,0,1.77,0.192,2.295,0.578c0.526,0.385,0.814,0.833,0.866,1.34
		c0.051,0.51-0.037,1.299-0.264,2.367l-0.908,4.273c-0.283,1.33-0.391,2.121-0.325,2.377h-2.778
		c-0.038-0.291,0.029-0.838,0.201-1.645c-0.921,1.244-2.031,1.867-3.33,1.867c-0.833,0-1.458-0.25-1.874-0.748
		s-0.523-1.227-0.32-2.182c0.254-1.193,0.845-2.117,1.775-2.771s2.452-1.045,4.568-1.172l0.086-0.404
		c0.151-0.713,0.185-1.209,0.099-1.484c-0.086-0.275-0.336-0.414-0.751-0.414C62.429,54.182,61.894,54.73,61.583,55.826z
		 M63.429,58.021c-0.891,0.1-1.552,0.291-1.984,0.576c-0.432,0.285-0.72,0.766-0.864,1.443c-0.192,0.902,0.044,1.354,0.709,1.354
		c0.361,0,0.731-0.203,1.111-0.609c0.379-0.404,0.685-1.15,0.916-2.234L63.429,58.021z"/>
	
		<linearGradient id="SVGID_10_" gradientUnits="userSpaceOnUse" x1="35.9946" y1="54.5107" x2="82.3295" y2="56.5534" gradientTransform="matrix(1 0 -0.2126 1 10.1173 0)">
		<stop  offset="0" style="stop-color:#443D3A"/>
		<stop  offset="0.5455" style="stop-color:#FFFFFF"/>
		<stop  offset="1" style="stop-color:#000000"/>
		<a:midPointStop  offset="0" style="stop-color:#443D3A"/>
		<a:midPointStop  offset="0.5" style="stop-color:#443D3A"/>
		<a:midPointStop  offset="0.5455" style="stop-color:#FFFFFF"/>
		<a:midPointStop  offset="0.5" style="stop-color:#FFFFFF"/>
		<a:midPointStop  offset="1" style="stop-color:#000000"/>
	</linearGradient>
	<path fill="url(#SVGID_10_)" d="M70.95,49.133l2.927-0.095l-0.719,3.384h1.973l-0.5,2.354h-1.973l-0.837,3.936
		c-0.154,0.729-0.239,1.199-0.253,1.416c-0.014,0.215,0.054,0.395,0.203,0.541c0.15,0.145,0.437,0.217,0.861,0.217
		c0.226,0,0.51-0.008,0.853-0.021l-0.482,2.271c-0.696,0.148-1.32,0.223-1.872,0.223c-0.905,0-1.561-0.174-1.969-0.52
		c-0.407-0.348-0.623-0.781-0.646-1.305c-0.023-0.525,0.087-1.355,0.329-2.494l0.906-4.264h-1.188l0.5-2.354h1.188L70.95,49.133z"/>
</g>
<g id="Layer_3">
	
		<linearGradient id="SVGID_11_" gradientUnits="userSpaceOnUse" x1="35.9277" y1="41.6748" x2="49.5088" y2="41.6748" gradientTransform="matrix(1 0 -0.2126 1 7.7169 0)">
		<stop  offset="0" style="stop-color:#443D3A"/>
		<stop  offset="0.5455" style="stop-color:#EF6600"/>
		<stop  offset="1" style="stop-color:#000000"/>
		<a:midPointStop  offset="0" style="stop-color:#443D3A"/>
		<a:midPointStop  offset="0.5" style="stop-color:#443D3A"/>
		<a:midPointStop  offset="0.5455" style="stop-color:#EF6600"/>
		<a:midPointStop  offset="0.5" style="stop-color:#EF6600"/>
		<a:midPointStop  offset="1" style="stop-color:#000000"/>
	</linearGradient>
	<path fill="url(#SVGID_11_)" d="M50.35,32.349L37.368,51h-0.965l0.366-18.651h2.386l-0.271,12.907l8.923-12.907H50.35z"/>
	
		<linearGradient id="SVGID_12_" gradientUnits="userSpaceOnUse" x1="46.877" y1="44.7593" x2="56.9639" y2="44.7593" gradientTransform="matrix(1 0 -0.2126 1 7.7169 0)">
		<stop  offset="0" style="stop-color:#443D3A"/>
		<stop  offset="0.5455" style="stop-color:#EF6600"/>
		<stop  offset="1" style="stop-color:#000000"/>
		<a:midPointStop  offset="0" style="stop-color:#443D3A"/>
		<a:midPointStop  offset="0.5" style="stop-color:#443D3A"/>
		<a:midPointStop  offset="0.5455" style="stop-color:#EF6600"/>
		<a:midPointStop  offset="0.5" style="stop-color:#EF6600"/>
		<a:midPointStop  offset="1" style="stop-color:#000000"/>
	</linearGradient>
	<path fill="url(#SVGID_12_)" d="M53.954,47.665l-0.798,2.197c-1.428,0.909-2.879,1.363-4.353,1.363
		c-1.535,0-2.655-0.536-3.358-1.608c-0.703-1.072-0.865-2.5-0.486-4.282c0.422-1.985,1.335-3.655,2.74-5.01
		c1.404-1.354,2.915-2.032,4.529-2.032c1.235,0,2.163,0.474,2.782,1.423c0.619,0.949,0.769,2.173,0.45,3.673
		c-0.079,0.371-0.186,0.75-0.321,1.139h-7.599c-0.157,0.406-0.274,0.794-0.353,1.165c-0.238,1.121-0.12,2.005,0.355,2.654
		c0.476,0.648,1.176,0.973,2.103,0.973C50.774,49.319,52.21,48.768,53.954,47.665z M48.233,42.926h5.1
		c0.18-0.847,0.13-1.516-0.15-2.005s-0.769-0.735-1.466-0.735C50.392,40.186,49.231,41.099,48.233,42.926z"/>
	
		<linearGradient id="SVGID_13_" gradientUnits="userSpaceOnUse" x1="58.3398" y1="41.5957" x2="63.2471" y2="41.5957" gradientTransform="matrix(1 0 -0.2126 1 7.7169 0)">
		<stop  offset="0" style="stop-color:#443D3A"/>
		<stop  offset="0.5455" style="stop-color:#EF6600"/>
		<stop  offset="1" style="stop-color:#000000"/>
		<a:midPointStop  offset="0" style="stop-color:#443D3A"/>
		<a:midPointStop  offset="0.5" style="stop-color:#443D3A"/>
		<a:midPointStop  offset="0.5455" style="stop-color:#EF6600"/>
		<a:midPointStop  offset="0.5" style="stop-color:#EF6600"/>
		<a:midPointStop  offset="1" style="stop-color:#000000"/>
	</linearGradient>
	<path fill="url(#SVGID_13_)" d="M64.088,32.349L57.55,50.842h-2.3l6.538-18.493H64.088z"/>
	
		<linearGradient id="SVGID_14_" gradientUnits="userSpaceOnUse" x1="63.7939" y1="44.7593" x2="74.1455" y2="44.7593" gradientTransform="matrix(1 0 -0.2126 1 7.7169 0)">
		<stop  offset="0" style="stop-color:#443D3A"/>
		<stop  offset="0.5455" style="stop-color:#EF6600"/>
		<stop  offset="1" style="stop-color:#000000"/>
		<a:midPointStop  offset="0" style="stop-color:#443D3A"/>
		<a:midPointStop  offset="0.5" style="stop-color:#443D3A"/>
		<a:midPointStop  offset="0.5455" style="stop-color:#EF6600"/>
		<a:midPointStop  offset="0.5" style="stop-color:#EF6600"/>
		<a:midPointStop  offset="1" style="stop-color:#000000"/>
	</linearGradient>
	<path fill="url(#SVGID_14_)" d="M69.196,38.293c1.368,0,2.362,0.483,2.982,1.449c0.62,0.966,0.758,2.253,0.417,3.859
		c-0.473,2.224-1.417,4.05-2.833,5.48c-1.415,1.43-2.935,2.145-4.559,2.145c-1.43,0-2.449-0.481-3.056-1.443
		s-0.729-2.299-0.365-4.011c0.452-2.127,1.391-3.905,2.815-5.334C66.021,39.008,67.554,38.293,69.196,38.293z M68.81,40.106
		c-0.944,0-1.882,0.584-2.815,1.754c-0.932,1.169-1.568,2.553-1.908,4.15c-0.203,0.953-0.163,1.729,0.12,2.33s0.729,0.9,1.338,0.9
		c0.962,0,1.9-0.547,2.818-1.642c0.916-1.094,1.55-2.471,1.903-4.13c0.217-1.024,0.193-1.84-0.075-2.449
		C69.924,40.411,69.463,40.106,68.81,40.106z"/>
	
		<linearGradient id="SVGID_15_" gradientUnits="userSpaceOnUse" x1="75.6152" y1="44.7593" x2="85.5962" y2="44.7593" gradientTransform="matrix(1 0 -0.2126 1 7.7169 0)">
		<stop  offset="0" style="stop-color:#443D3A"/>
		<stop  offset="0.5455" style="stop-color:#EF6600"/>
		<stop  offset="1" style="stop-color:#000000"/>
		<a:midPointStop  offset="0" style="stop-color:#443D3A"/>
		<a:midPointStop  offset="0.5" style="stop-color:#443D3A"/>
		<a:midPointStop  offset="0.5455" style="stop-color:#EF6600"/>
		<a:midPointStop  offset="0.5" style="stop-color:#EF6600"/>
		<a:midPointStop  offset="1" style="stop-color:#000000"/>
	</linearGradient>
	<path fill="url(#SVGID_15_)" d="M82.131,48.128l-0.738,2.224c-1.183,0.583-2.375,0.874-3.574,0.874
		c-1.633,0-2.829-0.51-3.587-1.529c-0.759-1.019-0.957-2.38-0.595-4.083c0.437-2.056,1.545-3.791,3.324-5.203
		c1.777-1.412,3.819-2.118,6.121-2.118c0.582,0,1.266,0.071,2.047,0.211l-0.738,2.039c-0.545-0.132-1.117-0.198-1.717-0.198
		c-1.598,0-3.032,0.512-4.305,1.536c-1.272,1.023-2.054,2.219-2.344,3.587c-0.244,1.147-0.138,2.05,0.318,2.707
		c0.456,0.658,1.201,0.986,2.233,0.986C79.669,49.161,80.854,48.816,82.131,48.128z"/>
	
		<linearGradient id="SVGID_16_" gradientUnits="userSpaceOnUse" x1="86.019" y1="42.1777" x2="90.6255" y2="42.1777" gradientTransform="matrix(1 0 -0.2126 1 7.7169 0)">
		<stop  offset="0" style="stop-color:#443D3A"/>
		<stop  offset="0.5455" style="stop-color:#EF6600"/>
		<stop  offset="1" style="stop-color:#000000"/>
		<a:midPointStop  offset="0" style="stop-color:#443D3A"/>
		<a:midPointStop  offset="0.5" style="stop-color:#443D3A"/>
		<a:midPointStop  offset="0.5455" style="stop-color:#EF6600"/>
		<a:midPointStop  offset="0.5" style="stop-color:#EF6600"/>
		<a:midPointStop  offset="1" style="stop-color:#000000"/>
	</linearGradient>
	<path fill="url(#SVGID_16_)" d="M89.525,38.664l-4.297,12.178h-2.299l4.297-12.178H89.525z M88.287,34.851
		c0.08-0.371,0.277-0.686,0.592-0.946c0.316-0.26,0.654-0.391,1.018-0.391c0.361,0,0.645,0.13,0.85,0.391s0.268,0.576,0.189,0.946
		c-0.076,0.362-0.273,0.673-0.588,0.933c-0.316,0.261-0.656,0.391-1.018,0.391s-0.645-0.13-0.85-0.391
		C88.275,35.524,88.21,35.213,88.287,34.851z"/>
	
		<linearGradient id="SVGID_17_" gradientUnits="userSpaceOnUse" x1="91.0903" y1="43.7002" x2="98.2251" y2="43.7002" gradientTransform="matrix(1 0 -0.2126 1 7.7169 0)">
		<stop  offset="0" style="stop-color:#443D3A"/>
		<stop  offset="0.5455" style="stop-color:#EF6600"/>
		<stop  offset="1" style="stop-color:#000000"/>
		<a:midPointStop  offset="0" style="stop-color:#443D3A"/>
		<a:midPointStop  offset="0.5" style="stop-color:#443D3A"/>
		<a:midPointStop  offset="0.5455" style="stop-color:#EF6600"/>
		<a:midPointStop  offset="0.5" style="stop-color:#EF6600"/>
		<a:midPointStop  offset="1" style="stop-color:#000000"/>
	</linearGradient>
	<path fill="url(#SVGID_17_)" d="M97.724,38.664l-0.633,1.8h-2.424l-2.598,6.657c-0.133,0.335-0.225,0.618-0.273,0.848
		c-0.168,0.795,0.176,1.192,1.033,1.192c0.637,0,1.43-0.243,2.381-0.728l-0.611,2.25c-0.922,0.362-1.805,0.542-2.643,0.542
		c-0.998,0-1.732-0.254-2.201-0.761c-0.471-0.507-0.617-1.176-0.441-2.005c0.043-0.203,0.105-0.411,0.189-0.624l2.846-7.372h-2.143
		l0.662-1.8h2.227l0.975-2.489h2.273l-0.973,2.489H97.724z"/>
	
		<linearGradient id="SVGID_18_" gradientUnits="userSpaceOnUse" x1="97.7739" y1="47.8701" x2="108.9595" y2="47.8701" gradientTransform="matrix(1 0 -0.2126 1 7.7169 0)">
		<stop  offset="0" style="stop-color:#443D3A"/>
		<stop  offset="0.5455" style="stop-color:#EF6600"/>
		<stop  offset="1" style="stop-color:#000000"/>
		<a:midPointStop  offset="0" style="stop-color:#443D3A"/>
		<a:midPointStop  offset="0.5" style="stop-color:#443D3A"/>
		<a:midPointStop  offset="0.5455" style="stop-color:#EF6600"/>
		<a:midPointStop  offset="0.5" style="stop-color:#EF6600"/>
		<a:midPointStop  offset="1" style="stop-color:#000000"/>
	</linearGradient>
	<path fill="url(#SVGID_18_)" d="M108.458,38.664L95.806,57.076h-2.447l4.816-7.007l0.051-11.405h2.299l-0.088,8.379l5.619-8.379
		H108.458z"/>
	<path fill="none" d="M106.867,49.337"/>
</g>
<g id="Layer_4">
</g>
</svg>
